<svg xmlns="http://www.w3.org/2000/svg" fill="none" viewBox="0 0 128 128">
  <path d="M50.4 78.5a75.1 75.1 0 0 0-28.5 6.9l24.2-65.7c.7-2 1.9-3.2 3.4-3.2h29c1.5 0 2.7 1.2 3.4 3.2l24.2 65.7s-11.6-7-28.5-7L67 45.5c-.4-1.7-1.6-2.8-2.9-2.8-1.3 0-2.5 1.1-2.9 2.8L50.4 78.5z" fill="#fff"/>
  <path d="M93.8 85.3a12.5 12.5 0 0 1 6.2-1.5c5.5 0 10 3.6 10 8s-4.5 8-10 8a13 13 0 0 1-8-2.6 47 47 0 0 1-17.2 5.8c-16.5 2.2-32-4.6-35-15.4-.3-.9-.5-1.8-.5-2.8 0-1.5.4-3 1.1-4.3 1.5-2.7 4.3-4.9 7.8-6.2 2.7-1 5.8-1.6 9-1.9 12-1 26.6 2 35.3 8.7a15.4 15.4 0 0 0-.8 4.5c0 1.2.2 2.3.5 3.4-.3.1-.5.2-.8.3-.9.3-1.8.6-2.7.9a25 25 0 0 0-5.5 2.8zm-49.8-7c-4.4.5-7.9 2.4-9.1 5 2.4 8.1 15.6 13.3 29.6 11.4a42 42 0 0 0 14-4.7 25.2 25.2 0 0 0-1.4-3c-.4-.8-.9-1.5-1.4-2.1A45.5 45.5 0 0 0 44 78.3z" fill="#FF5D01"/>
</svg>
